<svg xmlns="http://www.w3.org/2000/svg" xmlns:xlink="http://www.w3.org/1999/xlink" viewBox="0,0,255.99431,255.99431" width="50px" height="50px"><defs><linearGradient x1="21.75469" y1="8.66825" x2="10.01406" y2="43.35262" gradientUnits="userSpaceOnUse" id="color-1"><stop offset="0" stop-color="#7e7e7e"></stop><stop offset="1" stop-color="#c2c2c2"></stop></linearGradient><linearGradient x1="25.42188" y1="24.83075" x2="22.70625" y2="25.7495" gradientUnits="userSpaceOnUse" id="color-2"><stop offset="0" stop-color="#000000" stop-opacity="0.3"></stop><stop offset="0.071" stop-color="#000000" stop-opacity="0.2"></stop><stop offset="0.321" stop-color="#000000" stop-opacity="0.1"></stop><stop offset="0.623" stop-color="#000000" stop-opacity="0.05"></stop><stop offset="1" stop-color="#000000" stop-opacity="0"></stop></linearGradient><linearGradient x1="24.0125" y1="7.6245" x2="36.9" y2="41.96044" gradientUnits="userSpaceOnUse" id="color-3"><stop offset="0" stop-color="#f0f0f0"></stop><stop offset="1" stop-color="#d6d6d6"></stop></linearGradient></defs><g fill="none" fill-rule="nonzero" stroke="none" stroke-width="none" stroke-linecap="butt" stroke-linejoin="none" stroke-miterlimit="10" stroke-dasharray="" stroke-dashoffset="0" font-family="none" font-weight="none" font-size="none" text-anchor="none" style="mix-blend-mode: normal"><path transform="scale(5.33333,5.33333)" d="M28.32,42c-0.0003,0 -0.0006,0 -0.0009,-0.00001c-0.45724,-0.00123 -0.89729,-0.17511 -1.2311,-0.48699l-6.80043,-6.34707l-0.90157,-0.84093l-1.27454,3.75629l-0.90846,2.69171c-0.18114,0.53755 -0.59892,0.94603 -1.11411,1.12565c-0.1155,0.04497 -0.23623,0.07912 -0.36089,0.10135h-9.026c-0.13101,0 -0.26123,-0.01415 -0.38845,-0.04194c-0.12272,-0.02663 -0.24077,-0.06578 -0.35276,-0.11605c-0.20981,-0.09393 -0.39379,-0.22433 -0.54708,-0.38088c-0.31955,-0.32488 -0.51672,-0.77051 -0.51672,-1.26213c0,-0.196 0.032,-0.39 0.094,-0.576l10.935,-32.396c0.07599,-0.22552 0.19364,-0.42841 0.34265,-0.60126c0.33395,-0.3901 0.82849,-0.6278 1.36535,-0.62574h12.734c0.773,0 1.459,0.493 1.706,1.225l10.934,32.399c0.063,0.185 0.095,0.379 0.095,0.575c0,0.995 -0.806,1.801 -1.8,1.801zM21.06802,29.324l5.86396,0l-2.92457,-8.66513z" id="strokeMainSVG" fill="#ffffff" stroke="#ffffff" stroke-width="3" stroke-linejoin="round"></path><g transform="scale(5.33333,5.33333)" stroke="none" stroke-width="1" stroke-linejoin="miter"><path d="M17.634,6h11.305l-11.736,34.773c-0.247,0.733 -0.934,1.226 -1.708,1.226h-8.798c-0.994,0 -1.8,-0.806 -1.8,-1.8c0,-0.196 0.032,-0.39 0.094,-0.576l10.935,-32.396c0.247,-0.733 0.934,-1.227 1.708,-1.227z" fill="url(#color-1)"></path><path d="M34.062,29.324h-17.927c-0.458,-0.001 -0.83,0.371 -0.831,0.829c0,0.231 0.095,0.451 0.264,0.608l11.52,10.752c0.335,0.313 0.777,0.487 1.236,0.487h10.151z" fill="#dbdbdb"></path><path d="M17.634,6c-0.783,-0.003 -1.476,0.504 -1.712,1.25l-10.917,32.345c-0.335,0.934 0.151,1.964 1.085,2.299c0.196,0.07 0.403,0.106 0.612,0.106h9.026c0.684,-0.122 1.25,-0.603 1.481,-1.259l2.177,-6.416l7.776,7.253c0.326,0.27 0.735,0.419 1.158,0.422h10.114l-4.436,-12.676l-12.931,0.003l7.913,-23.327z" fill="url(#color-2)"></path><path d="M32.074,7.225c-0.247,-0.732 -0.933,-1.225 -1.706,-1.225h-12.6c0.772,0 1.459,0.493 1.705,1.224l10.935,32.399c0.318,0.942 -0.188,1.963 -1.13,2.281c-0.185,0.064 -0.379,0.096 -0.575,0.096h12.6c0.994,0 1.8,-0.806 1.8,-1.801c0,-0.196 -0.032,-0.39 -0.095,-0.575z" fill="url(#color-3)"></path></g></g></svg>